<?xml version="1.0" encoding="UTF-8"?>
<svg version="1.1" xmlns="http://www.w3.org/2000/svg" width="394" height="394">
<path d="M0 0 C1.25648849 0.00323273 1.25648849 0.00323273 2.5383606 0.00653076 C15.02390727 0.05803842 27.1026525 0.49133324 39.3125 3.3125 C40.65658936 3.61051514 40.65658936 3.61051514 42.02783203 3.91455078 C71.26155309 10.52593781 97.41372674 22.90574082 121.25 40.9375 C122.29692017 41.7267688 122.29692017 41.7267688 123.36499023 42.53198242 C127.46588692 45.69131913 131.18328941 49.03490935 134.77172852 52.76733398 C136.48513556 54.53935644 136.48513556 54.53935644 139.3125 56.75 C143.07452208 59.96339386 146.14329881 63.52507681 149.3125 67.3125 C149.99183594 68.10398437 150.67117188 68.89546875 151.37109375 69.7109375 C173.15817658 95.57581658 187.16522422 125.26477071 194.3125 158.3125 C194.57716064 159.46588867 194.57716064 159.46588867 194.84716797 160.64257812 C200.07912861 184.18380837 199.73348304 212.85079711 194.3125 236.3125 C194.01448486 237.65658936 194.01448486 237.65658936 193.71044922 239.02783203 C187.09906219 268.26155309 174.71925918 294.41372674 156.6875 318.25 C156.1613208 318.94794678 155.6351416 319.64589355 155.09301758 320.36499023 C151.93368087 324.46588692 148.59009065 328.18328941 144.85766602 331.77172852 C143.08564356 333.48513556 143.08564356 333.48513556 140.875 336.3125 C137.66160614 340.07452208 134.09992319 343.14329881 130.3125 346.3125 C129.52101563 346.99183594 128.72953125 347.67117188 127.9140625 348.37109375 C102.04918342 370.15817658 72.36022929 384.16522422 39.3125 391.3125 C38.15911133 391.57716064 38.15911133 391.57716064 36.98242188 391.84716797 C13.44119163 397.07912861 -15.22579711 396.73348304 -38.6875 391.3125 C-40.03158936 391.01448486 -40.03158936 391.01448486 -41.40283203 390.71044922 C-70.63655309 384.09906219 -96.78872674 371.71925918 -120.625 353.6875 C-121.67192017 352.8982312 -121.67192017 352.8982312 -122.73999023 352.09301758 C-126.84088692 348.93368087 -130.55828941 345.59009065 -134.14672852 341.85766602 C-135.86013556 340.08564356 -135.86013556 340.08564356 -138.6875 337.875 C-142.44952208 334.66160614 -145.51829881 331.09992319 -148.6875 327.3125 C-149.36683594 326.52101563 -150.04617187 325.72953125 -150.74609375 324.9140625 C-172.53317658 299.04918342 -186.54022422 269.36022929 -193.6875 236.3125 C-193.95216064 235.15911133 -193.95216064 235.15911133 -194.22216797 233.98242188 C-199.45412861 210.44119163 -199.10848304 181.77420289 -193.6875 158.3125 C-193.48882324 157.41644043 -193.29014648 156.52038086 -193.08544922 155.59716797 C-185.18034144 120.64297228 -168.41518521 84.9301048 -141.6875 60.3125 C-139.30051824 57.95961798 -136.94840512 55.596247 -134.6796875 53.12890625 C-122.49612282 40.15858001 -107.34804319 30.45846851 -91.6328125 22.32177734 C-89.93197185 21.43933818 -88.24586765 20.52861241 -86.5625 19.61328125 C-73.71988701 12.81739855 -60.0145967 8.42062282 -45.9375 5 C-44.94532471 4.75765625 -43.95314941 4.5153125 -42.9309082 4.265625 C-28.59725151 0.93751844 -14.64692785 -0.06798405 0 0 Z " fill="#0077BB" transform="translate(196.6875,-0.3125)"/>
<path d="M0 0 C0.77279297 -0.03738281 1.54558594 -0.07476562 2.34179688 -0.11328125 C3.09138672 -0.12488281 3.84097656 -0.13648437 4.61328125 -0.1484375 C5.29817627 -0.16825684 5.98307129 -0.18807617 6.6887207 -0.20849609 C9.81775204 0.70495021 10.83703181 2.75094207 12.6875 5.375 C14.02340698 8.50970459 14.02340698 8.50970459 15.21435547 12.08496094 C15.43654566 12.74233938 15.65873585 13.39971783 15.88765907 14.07701683 C16.61986207 16.25130274 17.33723049 18.4301834 18.0546875 20.609375 C18.57088185 22.15142657 19.08803225 23.69315841 19.6060791 25.23458862 C20.7022586 28.50251174 21.79204493 31.77246715 22.87664795 35.04425049 C24.5620967 40.12844704 26.26138729 45.20794231 27.96337891 50.28662109 C29.92539501 56.14373657 31.88460816 62.00176995 33.83939171 67.86130333 C37.58275848 79.08072528 41.36967635 90.28473505 45.1987915 101.47521973 C46.03915203 103.93174956 46.87696173 106.38913721 47.71435547 108.84667969 C48.21306093 110.30669365 48.71191066 111.76665835 49.2109375 113.2265625 C49.62263184 114.43135254 50.03432617 115.63614258 50.45849609 116.87744141 C51.81317556 120.73265356 53.24071236 124.55348507 54.6875 128.375 C56.87234406 125.0977339 57.97401126 121.86470084 59.17089844 118.15771484 C59.41229522 117.42263954 59.653692 116.68756424 59.90240383 115.93021393 C60.70480394 113.48348856 61.50077068 111.03471787 62.296875 108.5859375 C62.86138727 106.86118945 63.42636275 105.13659295 63.99177551 103.41213989 C65.1905495 99.75379107 66.38680214 96.09463178 67.58108521 92.43481445 C70.34689469 83.96105243 73.12877169 75.49256365 75.91047859 67.0240097 C76.51992549 65.16858845 77.12924315 63.31312473 77.73843193 61.45761871 C82.23723561 47.75564416 86.74844335 34.05839774 91.39050293 20.40411377 C91.96064853 18.72643138 92.52862404 17.04800984 93.09436035 15.36883545 C93.84971823 13.12914863 94.61269748 10.89224374 95.37890625 8.65625 C95.78310791 7.47095703 96.18730957 6.28566406 96.60375977 5.06445312 C97.6875 2.375 97.6875 2.375 99.6875 0.375 C102.57882177 0.20320948 105.36192065 0.1427053 108.25 0.1875 C109.44012695 0.1884668 109.44012695 0.1884668 110.65429688 0.18945312 C116.54724478 0.23474478 116.54724478 0.23474478 117.6875 1.375 C117.25828887 7.9449423 115.4402846 13.6658315 113.25 19.84375 C112.89818665 20.8559259 112.54637329 21.86810181 112.18389893 22.91094971 C111.02616577 26.2350572 109.85699348 29.55501369 108.6875 32.875 C107.87147962 35.20975457 107.05605857 37.54471869 106.24121094 39.87988281 C103.7358509 47.04935562 101.21416927 54.21301286 98.6875 61.375 C98.30327881 62.46433838 97.91905762 63.55367676 97.52319336 64.67602539 C94.30393085 73.79947813 91.08142089 82.92175482 87.83105469 92.03417969 C84.38248637 101.70923452 80.98352244 111.39681665 77.6875 121.125 C76.73884343 123.90606446 75.78915311 126.68677399 74.8392334 129.46740723 C74.24483269 131.2192277 73.65622891 132.97302736 73.07385254 134.72888184 C72.27690979 137.13159952 71.4608497 139.52702456 70.640625 141.921875 C70.4142334 142.6236084 70.1878418 143.3253418 69.95458984 144.04833984 C68.40610986 148.49041053 66.71739423 150.91820541 62.6875 153.375 C60.63867188 153.87670898 60.63867188 153.87670898 58.65625 153.87109375 C57.56376953 153.87206055 57.56376953 153.87206055 56.44921875 153.87304688 C55.70285156 153.85306641 54.95648438 153.83308594 54.1875 153.8125 C53.44113281 153.81958984 52.69476563 153.82667969 51.92578125 153.83398438 C47.30149079 153.78078457 44.378083 153.44198667 40.6875 150.375 C39.10772808 147.39340811 38.11356216 144.25539462 37.078125 141.05078125 C36.75434875 140.09861725 36.43057251 139.14645325 36.09698486 138.16543579 C35.39628008 136.09810098 34.703706 134.02799662 34.01831055 131.95553589 C32.92161947 128.63948222 31.80464501 125.33091031 30.68164062 122.02368164 C29.51227861 118.57931915 28.34417431 115.13458893 27.18237305 111.68766785 C23.63653839 101.17106552 19.9563181 90.70507618 16.23297119 80.25021362 C15.18726518 77.31184018 14.14555195 74.37208007 13.10498047 71.43188477 C9.77514662 62.02875288 6.42518774 52.63335271 3.03790283 43.25074768 C1.42771455 38.78698778 -0.17460002 34.32042119 -1.77612305 29.85354614 C-2.54541673 27.71496389 -3.31864257 25.57779171 -4.09594727 23.44210815 C-5.16994117 20.49081045 -6.23085462 17.5351125 -7.2890625 14.578125 C-7.61206329 13.70134598 -7.93506409 12.82456696 -8.26785278 11.92121887 C-8.55409515 11.11351547 -8.84033752 10.30581207 -9.13525391 9.47363281 C-9.38820221 8.77457825 -9.64115051 8.07552368 -9.90176392 7.35528564 C-10.38545925 5.02324089 -10.09797754 3.60560094 -9.3125 1.375 C-7.20155145 -0.73594855 -2.89681524 0.05236642 0 0 Z " fill="#FBFCFD" transform="translate(207.3125,124.625)"/>
<path d="M0 0 C1.52620972 0.00737183 1.52620972 0.00737183 3.08325195 0.01489258 C10.32594791 0.12796004 16.85250843 0.77726574 23.6875 3.3125 C24.72132813 3.67601563 25.75515625 4.03953125 26.8203125 4.4140625 C33.24768337 6.86183273 40.43189921 9.80129841 43.6875 16.3125 C43.81007461 18.26799256 43.86302388 20.22820618 43.875 22.1875 C43.88917969 23.23679688 43.90335937 24.28609375 43.91796875 25.3671875 C43.69254937 28.24797071 43.17714317 29.87490208 41.6875 32.3125 C37.7758982 31.67768157 35.13447248 29.74368158 31.875 27.5625 C18.79776336 19.28595638 4.8019692 15.77309215 -10.48046875 18.9765625 C-22.85622983 22.99126638 -30.81669506 30.70064476 -36.74609375 42.05859375 C-45.86309977 61.9969719 -46.0356394 86.98072324 -39.2109375 107.6484375 C-34.67283921 119.27182474 -29.02662721 126.51259862 -18.5 133.0625 C-4.8692511 138.40789173 10.47425916 137.84534268 23.86328125 132.18212891 C28.11782376 130.15393292 32.00739473 127.55415006 35.8828125 124.88671875 C38.83323065 123.23070411 40.370701 122.95409132 43.6875 123.3125 C45.02577901 125.98905801 44.89328556 128.13684052 44.9375 131.125 C44.96328125 132.16269531 44.9890625 133.20039063 45.015625 134.26953125 C44.63336277 137.81455839 43.87963557 139.51143788 41.6875 142.3125 C25.20789389 154.54504713 4.97486459 157.24519699 -14.93359375 154.8828125 C-30.61234722 151.7739287 -44.26276582 143.25742585 -53.1875 129.9375 C-66.33796393 107.56912714 -69.41333736 77.69448164 -63.28515625 52.5546875 C-57.68542241 33.88890805 -48.51669078 17.42350867 -31.3125 7.3125 C-20.98269324 1.81885454 -11.63941094 -0.06641192 0 0 Z " fill="#FBFDFE" transform="translate(142.3125,123.6875)"/>
</svg>
