<?xml version="1.0" encoding="UTF-8"?>
<svg version="1.1" xmlns="http://www.w3.org/2000/svg" width="512" height="512">
<path d="M0 0 C1.01790619 0.00215515 2.03581238 0.0043103 3.08456421 0.00653076 C17.69363523 0.05620146 32.02575853 0.30709809 46.375 3.3125 C47.34985352 3.51117676 48.32470703 3.70985352 49.32910156 3.91455078 C97.7109774 14.03517194 141.69928269 35.9516877 177.375 70.3125 C178.3640332 71.26068604 178.3640332 71.26068604 179.37304688 72.22802734 C188.86130305 81.37247479 197.6012044 90.66984009 205.375 101.3125 C206.23306152 102.46355017 207.09113451 103.61459177 207.94921875 104.765625 C213.98736829 112.95680614 219.34595521 121.47054105 224.375 130.3125 C224.73948242 130.94430176 225.10396484 131.57610352 225.47949219 132.22705078 C247.08534998 169.97532572 256.85198095 212.74189997 256.6875 255.9375 C256.68534485 256.95540619 256.6831897 257.97331238 256.68096924 259.02206421 C256.63129854 273.63113523 256.38040191 287.96325853 253.375 302.3125 C253.07698486 303.77478027 253.07698486 303.77478027 252.77294922 305.26660156 C242.65232806 353.6484774 220.7358123 397.63678269 186.375 433.3125 C185.74287598 433.97185547 185.11075195 434.63121094 184.45947266 435.31054688 C175.31502521 444.79880305 166.01765991 453.5387044 155.375 461.3125 C154.22394983 462.17056152 153.07290823 463.02863451 151.921875 463.88671875 C143.73224019 469.92427396 135.22961724 475.30707302 126.375 480.3125 C125.66778809 480.7146875 124.96057617 481.116875 124.23193359 481.53125 C101.09654164 494.5566741 75.92537591 503.30551461 49.9375 508.625 C49.21860596 508.77235596 48.49971191 508.91971191 47.7590332 509.0715332 C33.08339502 511.86090125 18.55831162 512.66142619 3.64770508 512.62817383 C0.70811513 512.6250221 -2.2304558 512.64854926 -5.16992188 512.67382812 C-18.54306192 512.71848737 -31.43916711 511.51301542 -44.625 509.3125 C-46.33055054 509.03031616 -46.33055054 509.03031616 -48.07055664 508.74243164 C-91.33802759 500.97044532 -132.38793216 480.98345309 -165.625 452.3125 C-166.37007813 451.67828125 -167.11515625 451.0440625 -167.8828125 450.390625 C-181.38779833 438.57948485 -194.05918743 425.82889772 -204.625 411.3125 C-205.48149066 410.16255169 -206.33826433 409.01281411 -207.1953125 407.86328125 C-213.23534209 399.67315742 -218.61867614 391.16870382 -223.625 382.3125 C-224.0271875 381.60528809 -224.429375 380.89807617 -224.84375 380.16943359 C-237.8691741 357.03404164 -246.61801461 331.86287591 -251.9375 305.875 C-252.08485596 305.15610596 -252.23221191 304.43721191 -252.3840332 303.6965332 C-255.35789088 288.05024391 -255.99800362 272.57681954 -255.9375 256.6875 C-255.93534485 255.66959381 -255.9331897 254.65168762 -255.93096924 253.60293579 C-255.88129854 238.99386477 -255.63040191 224.66174147 -252.625 210.3125 C-252.42632324 209.33764648 -252.22764648 208.36279297 -252.02294922 207.35839844 C-241.90232806 158.9765226 -219.9858123 114.98821731 -185.625 79.3125 C-184.99287598 78.65314453 -184.36075195 77.99378906 -183.70947266 77.31445312 C-174.56502521 67.82619695 -165.26765991 59.0862956 -154.625 51.3125 C-153.47394983 50.45443848 -152.32290823 49.59636549 -151.171875 48.73828125 C-142.98224019 42.70072604 -134.47961724 37.31792698 -125.625 32.3125 C-124.91778809 31.9103125 -124.21057617 31.508125 -123.48193359 31.09375 C-100.34654164 18.0683259 -75.17537591 9.31948539 -49.1875 4 C-48.46860596 3.85264404 -47.74971191 3.70528809 -47.0090332 3.5534668 C-31.36274391 0.57960912 -15.88931954 -0.06050362 0 0 Z " fill="#FEFEFE" transform="translate(255.625,-0.3125)"/>
<path d="M0 0 C1.01790619 0.00215515 2.03581238 0.0043103 3.08456421 0.00653076 C17.69363523 0.05620146 32.02575853 0.30709809 46.375 3.3125 C47.34985352 3.51117676 48.32470703 3.70985352 49.32910156 3.91455078 C97.7109774 14.03517194 141.69928269 35.9516877 177.375 70.3125 C178.3640332 71.26068604 178.3640332 71.26068604 179.37304688 72.22802734 C188.86130305 81.37247479 197.6012044 90.66984009 205.375 101.3125 C206.23306152 102.46355017 207.09113451 103.61459177 207.94921875 104.765625 C213.98736829 112.95680614 219.34595521 121.47054105 224.375 130.3125 C224.73948242 130.94430176 225.10396484 131.57610352 225.47949219 132.22705078 C247.08534998 169.97532572 256.85198095 212.74189997 256.6875 255.9375 C256.68534485 256.95540619 256.6831897 257.97331238 256.68096924 259.02206421 C256.63129854 273.63113523 256.38040191 287.96325853 253.375 302.3125 C253.07698486 303.77478027 253.07698486 303.77478027 252.77294922 305.26660156 C242.65232806 353.6484774 220.7358123 397.63678269 186.375 433.3125 C185.74287598 433.97185547 185.11075195 434.63121094 184.45947266 435.31054688 C175.31502521 444.79880305 166.01765991 453.5387044 155.375 461.3125 C154.22394983 462.17056152 153.07290823 463.02863451 151.921875 463.88671875 C143.73224019 469.92427396 135.22961724 475.30707302 126.375 480.3125 C125.66778809 480.7146875 124.96057617 481.116875 124.23193359 481.53125 C101.09654164 494.5566741 75.92537591 503.30551461 49.9375 508.625 C49.21860596 508.77235596 48.49971191 508.91971191 47.7590332 509.0715332 C33.08339502 511.86090125 18.55831162 512.66142619 3.64770508 512.62817383 C0.70811513 512.6250221 -2.2304558 512.64854926 -5.16992188 512.67382812 C-18.54306192 512.71848737 -31.43916711 511.51301542 -44.625 509.3125 C-46.33055054 509.03031616 -46.33055054 509.03031616 -48.07055664 508.74243164 C-91.33802759 500.97044532 -132.38793216 480.98345309 -165.625 452.3125 C-166.37007813 451.67828125 -167.11515625 451.0440625 -167.8828125 450.390625 C-181.38779833 438.57948485 -194.05918743 425.82889772 -204.625 411.3125 C-205.48149066 410.16255169 -206.33826433 409.01281411 -207.1953125 407.86328125 C-213.23534209 399.67315742 -218.61867614 391.16870382 -223.625 382.3125 C-224.0271875 381.60528809 -224.429375 380.89807617 -224.84375 380.16943359 C-237.8691741 357.03404164 -246.61801461 331.86287591 -251.9375 305.875 C-252.08485596 305.15610596 -252.23221191 304.43721191 -252.3840332 303.6965332 C-255.35789088 288.05024391 -255.99800362 272.57681954 -255.9375 256.6875 C-255.93534485 255.66959381 -255.9331897 254.65168762 -255.93096924 253.60293579 C-255.88129854 238.99386477 -255.63040191 224.66174147 -252.625 210.3125 C-252.42632324 209.33764648 -252.22764648 208.36279297 -252.02294922 207.35839844 C-241.90232806 158.9765226 -219.9858123 114.98821731 -185.625 79.3125 C-184.99287598 78.65314453 -184.36075195 77.99378906 -183.70947266 77.31445312 C-174.56502521 67.82619695 -165.26765991 59.0862956 -154.625 51.3125 C-153.47394983 50.45443848 -152.32290823 49.59636549 -151.171875 48.73828125 C-142.98224019 42.70072604 -134.47961724 37.31792698 -125.625 32.3125 C-124.91778809 31.9103125 -124.21057617 31.508125 -123.48193359 31.09375 C-100.34654164 18.0683259 -75.17537591 9.31948539 -49.1875 4 C-48.46860596 3.85264404 -47.74971191 3.70528809 -47.0090332 3.5534668 C-31.36274391 0.57960912 -15.88931954 -0.06050362 0 0 Z M-103.61669922 36.29492188 C-105.06359276 37.02804275 -106.51653218 37.74927476 -107.97314453 38.46289062 C-149.28723542 58.70942562 -185.39975649 91.67503204 -208.58740234 131.53564453 C-209.30859764 132.77067026 -210.0387707 134.00047938 -210.77587891 135.22607422 C-235.40730079 176.26521733 -243.78596458 222.02496136 -242.625 269.3125 C-242.60953125 270.13959473 -242.5940625 270.96668945 -242.578125 271.81884766 C-242.19874797 289.12397287 -238.73583881 306.80516997 -233.625 323.3125 C-233.38410645 324.09802246 -233.14321289 324.88354492 -232.89501953 325.69287109 C-224.7421352 351.95883831 -213.11242121 377.20396654 -196.625 399.3125 C-196.17656738 399.91642578 -195.72813477 400.52035156 -195.26611328 401.14257812 C-188.59639552 410.04834458 -181.3255121 418.29019779 -173.625 426.3125 C-173.13918457 426.82554687 -172.65336914 427.33859375 -172.15283203 427.8671875 C-165.1026496 435.29190351 -157.63265879 441.81020227 -149.44140625 447.94921875 C-147.61760352 449.31805134 -145.80874249 450.70510254 -144 452.09375 C-93.71581055 490.29767381 -29.3389956 505.74776939 32.9375 497.5625 C43.2901481 496.1222768 53.37029935 494.35691683 63.375 491.3125 C64.61765625 490.95542969 65.8603125 490.59835937 67.140625 490.23046875 C98.207186 481.11272728 127.31458279 466.95278753 152.375 446.3125 C152.92430176 445.86471191 153.47360352 445.41692383 154.03955078 444.95556641 C167.41058354 433.99901236 179.78944704 422.00446756 190.375 408.3125 C191.51775391 406.91257812 191.51775391 406.91257812 192.68359375 405.484375 C232.09651143 356.29705373 249.1632028 291.22596971 242.42385864 228.93293762 C240.82995546 215.14595644 238.46285589 201.5841048 234.375 188.3125 C234.1073584 187.43287598 233.8397168 186.55325195 233.56396484 185.64697266 C219.06839974 138.98451265 190.30137505 95.25586542 151.375 65.3125 C150.84100586 64.89677734 150.30701172 64.48105469 149.75683594 64.05273438 C127.07340161 46.48380934 101.52093397 33.46384601 74.375 24.3125 C73.26511719 23.92578125 72.15523438 23.5390625 71.01171875 23.140625 C61.34679548 19.94763891 51.36733267 18.15172446 41.375 16.3125 C40.199375 16.09464844 39.02375 15.87679688 37.8125 15.65234375 C-8.92801864 7.43623696 -61.33524413 14.78940875 -103.61669922 36.29492188 Z " fill="#4C5997" transform="translate(255.625,-0.3125)"/>
<path d="M0 0 C0.63164062 0.44730469 1.26328125 0.89460937 1.9140625 1.35546875 C14.53470683 11.1811302 21.70440752 26.48250663 24 42 C24.66831447 50.56907318 24.09432909 55.74845576 21 64 C7.47 64 -6.06 64 -20 64 C-20.33 57.4 -20.66 50.8 -21 44 C-23.72739254 36.4595618 -27.28438581 30.71918212 -34.70117188 27.19067383 C-39.80804248 25.06091684 -44.37136348 24.48643731 -49.875 24.5625 C-50.66438965 24.57224854 -51.4537793 24.58199707 -52.26708984 24.59204102 C-61.02235721 24.85770691 -67.1005341 26.6553337 -73.3125 33.0625 C-84.94995025 47.46853721 -85.48518551 64.9508991 -85.33618164 82.62304688 C-85.31248758 85.62657405 -85.31565516 88.6292147 -85.32226562 91.6328125 C-85.29775682 109.17966684 -84.44530024 126.33002925 -72 140 C-65.55297386 145.96349918 -59.7970852 147.53477093 -51.25 147.4375 C-50.36054688 147.43282715 -49.47109375 147.4281543 -48.5546875 147.42333984 C-42.02476529 147.27612935 -36.72911287 146.2703686 -31 143 C-30.29875 142.70867187 -29.5975 142.41734375 -28.875 142.1171875 C-24.7214567 139.64236795 -22.66018689 131.7354205 -21 128 C-20.67 121.4 -20.34 114.8 -20 108 C-6.47 108 7.06 108 21 108 C26.13344714 121.68919237 24.10900693 134.30231785 18.4921875 147.55859375 C14.68791692 155.06981637 9.96587537 161.09510462 4 167 C3.33613281 167.69738281 2.67226562 168.39476562 1.98828125 169.11328125 C-13.65979325 184.46329718 -34.65842424 187.32731594 -55.56469727 187.38500977 C-75.32223372 187.13868965 -91.68828894 179.77937274 -106 166 C-122.76345541 148.15282341 -130.14365743 125.1188465 -130.16796875 100.92578125 C-130.17129715 99.76555954 -130.17462555 98.60533783 -130.17805481 97.40995789 C-130.18310517 94.95991409 -130.18546372 92.50986345 -130.18530273 90.05981445 C-130.18748241 86.34249303 -130.20563995 82.62547186 -130.22460938 78.90820312 C-130.22754518 76.51823017 -130.22952872 74.12825582 -130.23046875 71.73828125 C-130.23765427 70.64099197 -130.24483978 69.5437027 -130.25224304 68.41316223 C-130.18678073 45.90987474 -122.71593163 23.76962829 -106.71875 7.6484375 C-105.8215625 6.77445313 -104.924375 5.90046875 -104 5 C-103.2471875 4.24976563 -102.494375 3.49953125 -101.71875 2.7265625 C-74.64575265 -22.8750763 -29.17801126 -21.0837789 0 0 Z " fill="#4F5C98" transform="translate(226,170)"/>
<path d="M0 0 C15.51 0 31.02 0 47 0 C50.17118364 7.61084074 53.18250684 15.08043874 55.828125 22.859375 C56.17477707 23.86729599 56.52142914 24.87521698 56.87858582 25.91368103 C57.62083397 28.07247181 58.36145223 30.23182358 59.10055542 32.39169312 C61.075296 38.16124913 63.0629206 43.92635989 65.05078125 49.69140625 C65.45760635 50.87180984 65.86443146 52.05221344 66.28358459 53.26838684 C71.30090211 67.80339354 76.44986626 82.29156701 81.60449219 96.77832031 C81.94555496 97.73758926 82.28661774 98.69685822 82.63801575 99.68519592 C83.26704808 101.45378369 83.89692169 103.22207261 84.52787781 104.98997498 C86.41930752 110.30505386 88.23626565 115.6411979 90 121 C93.02698511 113.64325807 95.74256023 106.20541678 98.3515625 98.69140625 C98.76375534 97.51051926 99.17594818 96.32963226 99.60063171 95.11296082 C100.48517087 92.57828028 101.36894264 90.04334834 102.25137329 87.50793457 C104.34739147 81.48600713 106.45029056 75.46648141 108.55278206 69.44681168 C109.03170967 68.07548993 109.51055425 66.70413919 109.98931694 65.33275986 C117.59957671 43.53399177 125.30569302 21.76925876 133 0 C148.84 0 164.68 0 181 0 C177.6244452 10.12666439 177.6244452 10.12666439 176.26098633 13.83740234 C175.79720329 15.10247871 175.79720329 15.10247871 175.3240509 16.39311218 C174.99668442 17.28174454 174.66931793 18.17037689 174.33203125 19.0859375 C173.98085739 20.04228592 173.62968353 20.99863434 173.26786804 21.98396301 C172.11758736 25.11486569 170.96516371 28.24497394 169.8125 31.375 C168.99478481 33.59806063 168.17707659 35.82112382 167.359375 38.04418945 C160.80661231 55.84901759 154.19835498 73.63286435 147.57167053 91.41027832 C142.19794507 105.83053633 136.84299248 120.25778088 131.48519897 134.68396378 C130.36599188 137.69736444 129.24661363 140.71070151 128.12723923 143.72404003 C121.40807053 161.81230198 114.6989166 179.9042253 108 198 C96.45 198 84.9 198 73 198 C64.32203335 175.22033755 55.79632364 152.38693586 47.31225586 129.53448486 C45.89000822 125.70374354 44.46750761 121.87309624 43.04492188 118.04248047 C42.78767082 117.34977177 42.53041977 116.65706306 42.26537323 115.94336319 C40.91717052 112.31304942 39.5689095 108.68275731 38.22058105 105.05249023 C37.66658288 103.56087329 37.11258713 102.06925544 36.55859375 100.57763672 C36.14323742 99.4593001 36.14323742 99.4593001 35.71949005 98.31837082 C34.0335939 93.77890234 32.34830709 89.23920816 30.66347504 84.69934464 C25.40375623 70.52715584 20.14024455 56.35650813 14.83743858 42.2003746 C13.71090649 39.19247155 12.58569039 36.18407611 11.46020508 33.17578125 C9.81832586 28.78750372 8.17163878 24.4010721 6.5222168 20.015625 C5.79456966 18.07168549 5.06710043 16.12767937 4.33984375 14.18359375 C4.0119989 13.31621078 3.68415405 12.44882782 3.34637451 11.55516052 C3.04894348 10.7576387 2.75151245 9.96011688 2.44506836 9.13842773 C2.18817734 8.45465561 1.93128632 7.77088348 1.66661072 7.06639099 C0.9236034 4.76318226 0.47461848 2.37309242 0 0 Z " fill="#FCFDFD" transform="translate(239,157)"/>
<path d="M0 0 C1.05832031 0.42410156 2.11664063 0.84820312 3.20703125 1.28515625 C10.63832565 4.64092315 16.30577302 9.21409495 22 15 C22.58652344 15.5878125 23.17304688 16.175625 23.77734375 16.78125 C33.82320292 27.61953064 36 40.61243564 36 55 C28.08 55 20.16 55 12 55 C11.773125 52.73125 11.54625 50.4625 11.3125 48.125 C10.44354011 40.85575551 8.72603792 33.68220218 3.33984375 28.359375 C2 27 2 27 2 25 C1.42894531 24.7215625 0.85789062 24.443125 0.26953125 24.15625 C-2.72196182 22.63218468 -5.59582679 20.92202659 -8.48828125 19.21875 C-15.20001744 15.96204442 -21.56163937 15.63492315 -28.875 15.625 C-29.81730469 15.60050781 -30.75960937 15.57601562 -31.73046875 15.55078125 C-41.76407288 15.50914804 -49.63107922 19.26528962 -57 26 C-72.33196328 42.04658869 -73.53188505 62.77677215 -73.44604492 83.70556641 C-73.43753244 86.86296842 -73.46640103 90.01855647 -73.49804688 93.17578125 C-73.55156872 108.22168498 -72.53218545 123.03817693 -65.25 136.5625 C-64.90783447 137.21959961 -64.56566895 137.87669922 -64.21313477 138.55371094 C-59.33932194 147.51965584 -52.81532582 153.07460353 -43.48828125 157.078125 C-33.06780584 159.83202444 -18.07174927 159.88283043 -8.21875 155.32421875 C1.75451338 149.37186614 7.09022285 143.00123306 10.421875 131.8828125 C11.27255666 127.6408999 11.56951004 123.30489956 12 119 C19.92 119 27.84 119 36 119 C36 135.07470133 31.46740332 148.11508393 20.2109375 159.8203125 C19.48132813 160.53960937 18.75171875 161.25890625 18 162 C17.15308594 162.86238281 17.15308594 162.86238281 16.2890625 163.7421875 C11.29555274 168.44339425 5.19844589 171.19634328 -1 174 C-1.76054687 174.34546875 -2.52109375 174.6909375 -3.3046875 175.046875 C-11.60413468 177.98175197 -19.55258247 178.33687373 -28.3125 178.3125 C-29.45912109 178.32861328 -30.60574219 178.34472656 -31.78710938 178.36132812 C-48.56878977 178.3708254 -62.5718931 173.01941409 -74.73046875 161.29296875 C-75.85388672 160.15794922 -75.85388672 160.15794922 -77 159 C-77.69738281 158.33613281 -78.39476563 157.67226563 -79.11328125 156.98828125 C-95.41607653 140.36892683 -98.71103447 116.02068688 -98.5859375 93.80664062 C-98.57143555 92.71714111 -98.55693359 91.6276416 -98.54199219 90.50512695 C-98.49981322 87.17274301 -98.50097788 83.84237461 -98.5078125 80.50976562 C-98.43116515 54.47042846 -93.78483348 32.17415645 -75 13 C-74.40832031 12.37222656 -73.81664062 11.74445313 -73.20703125 11.09765625 C-68.98198359 6.98453038 -64.21619715 4.33484739 -59 1.6875 C-58.33540771 1.34960449 -57.67081543 1.01170898 -56.98608398 0.66357422 C-40.48490841 -7.34867453 -16.86080459 -6.79086358 0 0 Z " fill="#FCFCFD" transform="translate(204,169)"/>
<path d="M0 0 C15.51 0 31.02 0 47 0 C50.17118364 7.61084074 53.18250684 15.08043874 55.828125 22.859375 C56.17477707 23.86729599 56.52142914 24.87521698 56.87858582 25.91368103 C57.62083397 28.07247181 58.36145223 30.23182358 59.10055542 32.39169312 C61.075296 38.16124913 63.0629206 43.92635989 65.05078125 49.69140625 C65.45760635 50.87180984 65.86443146 52.05221344 66.28358459 53.26838684 C71.30090211 67.80339354 76.44986626 82.29156701 81.60449219 96.77832031 C81.94555496 97.73758926 82.28661774 98.69685822 82.63801575 99.68519592 C83.26704808 101.45378369 83.89692169 103.22207261 84.52787781 104.98997498 C86.41930752 110.30505386 88.23626565 115.6411979 90 121 C93.02698511 113.64325807 95.74256023 106.20541678 98.3515625 98.69140625 C98.76375534 97.51051926 99.17594818 96.32963226 99.60063171 95.11296082 C100.48517087 92.57828028 101.36894264 90.04334834 102.25137329 87.50793457 C104.34739147 81.48600713 106.45029056 75.46648141 108.55278206 69.44681168 C109.03170967 68.07548993 109.51055425 66.70413919 109.98931694 65.33275986 C117.59957671 43.53399177 125.30569302 21.76925876 133 0 C148.84 0 164.68 0 181 0 C177.6244452 10.12666439 177.6244452 10.12666439 176.26098633 13.83740234 C175.79720329 15.10247871 175.79720329 15.10247871 175.3240509 16.39311218 C174.99668442 17.28174454 174.66931793 18.17037689 174.33203125 19.0859375 C173.98085739 20.04228592 173.62968353 20.99863434 173.26786804 21.98396301 C172.11758736 25.11486569 170.96516371 28.24497394 169.8125 31.375 C168.99478481 33.59806063 168.17707659 35.82112382 167.359375 38.04418945 C160.80661231 55.84901759 154.19835498 73.63286435 147.57167053 91.41027832 C142.19794507 105.83053633 136.84299248 120.25778088 131.48519897 134.68396378 C130.36599188 137.69736444 129.24661363 140.71070151 128.12723923 143.72404003 C121.40807053 161.81230198 114.6989166 179.9042253 108 198 C96.45 198 84.9 198 73 198 C64.32203335 175.22033755 55.79632364 152.38693586 47.31225586 129.53448486 C45.89000822 125.70374354 44.46750761 121.87309624 43.04492188 118.04248047 C42.78767082 117.34977177 42.53041977 116.65706306 42.26537323 115.94336319 C40.91717052 112.31304942 39.5689095 108.68275731 38.22058105 105.05249023 C37.66658288 103.56087329 37.11258713 102.06925544 36.55859375 100.57763672 C36.14323742 99.4593001 36.14323742 99.4593001 35.71949005 98.31837082 C34.0335939 93.77890234 32.34830709 89.23920816 30.66347504 84.69934464 C25.40375623 70.52715584 20.14024455 56.35650813 14.83743858 42.2003746 C13.71090649 39.19247155 12.58569039 36.18407611 11.46020508 33.17578125 C9.81832586 28.78750372 8.17163878 24.4010721 6.5222168 20.015625 C5.79456966 18.07168549 5.06710043 16.12767937 4.33984375 14.18359375 C4.0119989 13.31621078 3.68415405 12.44882782 3.34637451 11.55516052 C3.04894348 10.7576387 2.75151245 9.96011688 2.44506836 9.13842773 C2.18817734 8.45465561 1.93128632 7.77088348 1.66661072 7.06639099 C0.9236034 4.76318226 0.47461848 2.37309242 0 0 Z M14 10 C16.06494598 16.31553048 18.26676675 22.5696603 20.5625 28.8046875 C20.90560715 29.73952469 21.24871429 30.67436188 21.60221863 31.63752747 C22.73324587 34.71726328 23.86648762 37.79617805 25 40.875 C25.39571198 41.95109528 25.79142395 43.02719055 26.1991272 44.13589478 C32.91828235 62.40662912 39.69554293 80.65540957 46.50390625 98.89306641 C50.81960125 110.45513203 55.12341778 122.02147024 59.40786171 133.59514809 C60.20339783 135.74409146 60.99915226 137.89295386 61.79496765 140.04179382 C64.12607984 146.33656474 66.45653548 152.63157298 68.78319073 158.92799282 C69.51025704 160.89473811 70.23813179 162.86118196 70.96635437 164.82749939 C71.85849031 167.2365303 72.74929284 169.64605559 73.63850403 172.0561676 C74.03816879 173.13430222 74.43783356 174.21243683 74.84960938 175.32324219 C75.19423218 176.2552948 75.53885498 177.18734741 75.8939209 178.14764404 C77.18027034 181.46488101 78.5984688 184.72976052 80 188 C86.93 188 93.86 188 101 188 C101.80497925 185.81056763 101.80497925 185.81056763 102.6262207 183.5769043 C112.1258844 157.74414036 121.63632445 131.91559887 131.25 106.125 C131.62062561 105.13011566 131.99125122 104.13523132 132.37310791 103.11019897 C136.60878635 91.74123177 140.85647124 80.3768365 145.12060356 69.01851463 C147.44958895 62.81468698 149.77547827 56.60970363 152.09962654 50.40406227 C153.81157175 45.83397866 155.52794866 41.26559122 157.24756527 36.69838905 C158.31633626 33.85671815 159.38102035 31.01352894 160.44459724 28.16991043 C160.9440852 26.83705798 161.44529546 25.50484958 161.94830132 24.17332077 C162.63891715 22.34446082 163.32293 20.51311148 164.0065918 18.68164062 C164.39340622 17.6518811 164.78022064 16.62212158 165.17875671 15.56115723 C166.15266996 12.97214553 166.15266996 12.97214553 166 10 C157.42 10 148.84 10 140 10 C138.97003906 12.9803125 137.94007813 15.960625 136.87890625 19.03125 C129.75974197 39.61165661 122.60710888 60.17867537 115.31274414 80.69772339 C109.95630057 95.76679703 104.61838292 110.84180644 99.41418457 125.96426392 C98.85536343 127.58704383 98.29495097 129.2092768 97.73278809 130.8309021 C95.07883471 138.49406595 92.61381256 146.03676099 91 154 C90.67 154.33 90.34 154.66 90 155 C89.79971191 154.09733398 89.59942383 153.19466797 89.39306641 152.26464844 C86.85896119 141.29942483 83.29083292 130.82327341 79.4614563 120.25036621 C77.55864119 114.99553712 75.68151735 109.73151262 73.80078125 104.46875 C73.40847824 103.37302673 73.01617523 102.27730347 72.61198425 101.14837646 C68.16766173 88.71492581 63.86526044 76.23297741 59.5625 63.75 C54.73209645 49.75501181 49.90141157 35.76080395 44.9375 21.8125 C44.53797119 20.68489258 44.13844238 19.55728516 43.72680664 18.39550781 C43.37223389 17.40518555 43.01766113 16.41486328 42.65234375 15.39453125 C42.35320068 14.55768799 42.05405762 13.72084473 41.74584961 12.85864258 C41.14824122 11.01727471 41.14824122 11.01727471 40 10 C38.07332493 9.91251793 36.14348139 9.89302666 34.21484375 9.90234375 C33.04501953 9.90556641 31.87519531 9.90878906 30.66992188 9.91210938 C29.43822266 9.92048828 28.20652344 9.92886719 26.9375 9.9375 C25.70193359 9.94201172 24.46636719 9.94652344 23.19335938 9.95117188 C20.12885883 9.96300392 17.06445279 9.97948827 14 10 Z " fill="#4F5C98" transform="translate(239,157)"/>
</svg>
